<svg width="69" height="18" viewBox="0 0 69 18" fill="none" xmlns="http://www.w3.org/2000/svg">
<circle cx="9" cy="9" r="9" fill="#2DB783"/>
<path d="M27.7503 4.83984C26.9343 4.83984 26.0703 5.17584 25.3023 5.84784L25.4623 5.01584H22.2783L20.3103 16.1358H23.5583L24.3743 11.9918C24.8863 12.6638 25.6863 13.1758 26.7263 13.1758C29.1263 13.1758 30.6463 10.7438 30.6463 8.15184C30.6463 6.26384 29.6703 4.83984 27.7503 4.83984ZM26.3903 7.59184C27.0623 7.59184 27.5423 8.10384 27.5423 8.75984C27.5423 9.60784 26.7423 10.4238 25.8943 10.4238C25.3823 10.4238 24.9823 10.1198 24.8223 9.67184L25.0623 8.34384C25.3663 7.89584 25.8783 7.59184 26.3903 7.59184Z" fill="#202020"/>
<path d="M37.9527 4.99984L37.7127 6.02384C37.1847 5.35184 36.4007 4.85584 35.3607 4.85584C32.9447 4.85584 31.4247 7.27184 31.4247 9.86384C31.4247 11.7518 32.4007 13.1758 34.3207 13.1758C35.1367 13.1758 36.0167 12.8398 36.7687 12.1678L36.5767 13.0158H39.8087L41.2167 5.01584L37.9527 4.99984ZM36.0647 7.59184C36.5927 7.59184 36.9927 7.89584 37.1367 8.34384L36.9127 9.67184C36.5927 10.1198 36.0807 10.4238 35.5687 10.4238C34.8967 10.4238 34.4327 9.91184 34.4327 9.25584C34.4327 8.40784 35.2167 7.59184 36.0647 7.59184Z" fill="#202020"/>
<path d="M48.2034 4.83984C47.3874 4.83984 46.5234 5.17584 45.7554 5.84784L45.9154 5.01584H42.7314L40.7634 16.1358H44.0114L44.8274 11.9918C45.3394 12.6638 46.1394 13.1758 47.1794 13.1758C49.5794 13.1758 51.0994 10.7438 51.0994 8.15184C51.0994 6.26384 50.1234 4.83984 48.2034 4.83984ZM46.8434 7.59184C47.5154 7.59184 47.9954 8.10384 47.9954 8.75984C47.9954 9.60784 47.1954 10.4238 46.3474 10.4238C45.8354 10.4238 45.4354 10.1198 45.2754 9.67184L45.5154 8.34384C45.8194 7.89584 46.3314 7.59184 46.8434 7.59184Z" fill="#202020"/>
<path d="M56.8962 4.83984C54.4002 4.83984 52.1442 7.01584 52.1442 9.51184C52.1442 11.5758 53.7282 13.1758 55.9522 13.1758C57.2002 13.1758 58.4802 12.7278 59.5362 11.8798L57.9522 10.1998C57.5202 10.5838 56.7682 10.9198 56.0642 10.9038C55.6642 10.9038 55.2802 10.8078 55.1522 10.3438L58.4482 9.97584C59.7602 9.86384 60.4962 9.20784 60.4962 8.08784C60.4962 6.03984 59.1682 4.83984 56.8962 4.83984ZM56.7522 7.12784C57.2322 7.12784 57.6642 7.44784 57.6642 7.84784C57.6642 8.11984 57.3922 8.29584 57.0722 8.32784L55.3762 8.47184C55.4082 8.34384 55.4402 8.21584 55.4882 8.10384C55.7122 7.47984 56.1922 7.12784 56.7522 7.12784Z" fill="#202020"/>
<path d="M68.0967 4.85584C67.2647 4.85584 66.2887 5.31984 65.3767 6.35984L65.6487 4.99984H62.4327L61.0247 12.9998H64.2727L65.0567 8.91984C65.9047 8.05584 66.9287 7.46384 67.8567 7.46384L68.0967 4.85584Z" fill="#202020"/>
</svg>
